<svg width="40" height="40" viewBox="0 0 40 40" fill="none" xmlns="http://www.w3.org/2000/svg">
<g clip-path="url(#clip0_24_63368)">
<path d="M19.9995 40.0001C31.0452 40.0001 39.9995 31.0458 39.9995 20.0001C39.9995 8.95443 31.0452 0.00012207 19.9995 0.00012207C8.95382 0.00012207 -0.000488281 8.95443 -0.000488281 20.0001C-0.000488281 31.0458 8.95382 40.0001 19.9995 40.0001Z" fill="#F0F0F0"/>
<path d="M40.0001 20C40.0001 11.4007 34.5726 4.06988 26.9565 1.24402V38.7561C34.5726 35.9302 40.0001 28.5993 40.0001 20Z" fill="#D80027"/>
<path d="M0 20C0 28.5993 5.42758 35.9302 13.0435 38.7561V1.24402C5.42758 4.06988 0 11.4007 0 20Z" fill="#0052B4"/>
</g>
<defs>
<clipPath id="clip0_24_63368">
<rect width="40" height="40" fill="white"/>
</clipPath>
</defs>
</svg>
