<svg width="40" height="40" viewBox="0 0 40 40" fill="none" xmlns="http://www.w3.org/2000/svg">
<g clip-path="url(#clip0_24_62565)">
<path d="M20 40.0001C31.0457 40.0001 40 31.0458 40 20.0001C40 8.95437 31.0457 6.10352e-05 20 6.10352e-05C8.9543 6.10352e-05 0 8.95437 0 20.0001C0 31.0458 8.9543 40.0001 20 40.0001Z" fill="#D80027"/>
<path d="M19.1809 16.3428L20.8219 18.6041L23.4795 17.7424L21.8359 20.0018L23.4766 22.263L20.82 21.398L19.1765 23.6574L19.1782 20.8636L16.5215 19.9986L19.1791 19.1368L19.1809 16.3428Z" fill="#F0F0F0"/>
<path d="M14.7027 25.6523C11.5811 25.6523 9.05047 23.1217 9.05047 20.0001C9.05047 16.8786 11.5811 14.348 14.7027 14.348C15.6759 14.348 16.5917 14.5941 17.3913 15.0273C16.137 13.8006 14.4216 13.0436 12.5288 13.0436C8.68672 13.0436 5.57227 16.1581 5.57227 20.0001C5.57227 23.842 8.6868 26.9565 12.5288 26.9565C14.4217 26.9565 16.137 26.1994 17.3913 24.9728C16.5917 25.4062 15.6759 25.6523 14.7027 25.6523Z" fill="#F0F0F0"/>
</g>
<defs>
<clipPath id="clip0_24_62565">
<rect width="40" height="40" fill="white"/>
</clipPath>
</defs>
</svg>
