<svg width="20" height="20" viewBox="0 0 20 20" fill="none" xmlns="http://www.w3.org/2000/svg">
<g id="House">
<path id="Vector" d="M17.0961 8.10717L10.8461 2.21029C10.843 2.20763 10.8402 2.20476 10.8375 2.2017C10.6074 1.99243 10.3075 1.87646 9.99648 1.87646C9.68545 1.87646 9.38558 1.99243 9.15547 2.2017L9.14688 2.21029L2.90391 8.10717C2.77656 8.22427 2.67491 8.36653 2.60538 8.52494C2.53586 8.68336 2.49997 8.85448 2.5 9.02748V16.2501C2.5 16.5817 2.6317 16.8996 2.86612 17.134C3.10054 17.3684 3.41848 17.5001 3.75 17.5001H7.5C7.83152 17.5001 8.14946 17.3684 8.38388 17.134C8.6183 16.8996 8.75 16.5817 8.75 16.2501V12.5001H11.25V16.2501C11.25 16.5817 11.3817 16.8996 11.6161 17.134C11.8505 17.3684 12.1685 17.5001 12.5 17.5001H16.25C16.5815 17.5001 16.8995 17.3684 17.1339 17.134C17.3683 16.8996 17.5 16.5817 17.5 16.2501V9.02748C17.5 8.85448 17.4641 8.68336 17.3946 8.52494C17.3251 8.36653 17.2234 8.22427 17.0961 8.10717ZM16.25 16.2501H12.5V12.5001C12.5 12.1686 12.3683 11.8507 12.1339 11.6163C11.8995 11.3818 11.5815 11.2501 11.25 11.2501H8.75C8.41848 11.2501 8.10054 11.3818 7.86612 11.6163C7.6317 11.8507 7.5 12.1686 7.5 12.5001V16.2501H3.75V9.02748L3.75859 9.01967L10 3.12514L16.2422 9.01811L16.2508 9.02592L16.25 16.2501Z" fill="white"/>
</g>
</svg>
