<svg width="138" height="40" viewBox="0 0 138 40" fill="none" xmlns="http://www.w3.org/2000/svg">
<g clip-path="url(#clip0_29_94302)">
<path d="M15.8762 10.7297H6.51392V20.3934H15.8762V10.7297Z" fill="#03286B"/>
<path d="M15.8762 29.873H6.51392V39.5368H15.8762V29.873Z" fill="#9E81EF"/>
<path d="M34.8778 10.7297H25.5155V20.3934H34.8778V10.7297Z" fill="#05B6FE"/>
<path d="M6.51392 10.7296L16.1991 1.25H25.5154V10.7296H6.51392Z" fill="#670FF2"/>
<path d="M34.8776 20.3934L25.1924 29.873H15.8761V20.3934H34.8776Z" fill="#3D69EE"/>
<path d="M134.864 30.965H131.195V19.205H128.339V16.145H131.195V11.525H134.864V16.145H137.75V19.205H134.864V30.965Z" fill="#020617"/>
<path d="M119.868 31.355C115.448 31.355 112.351 28.145 112.351 23.555C112.351 18.905 115.388 15.695 119.747 15.695C124.197 15.695 127.023 18.665 127.023 23.285V24.395L115.839 24.425C116.109 27.035 117.492 28.355 119.928 28.355C121.942 28.355 123.265 27.575 123.686 26.165H127.084C126.452 29.405 123.746 31.355 119.868 31.355ZM119.777 18.695C117.613 18.695 116.29 19.865 115.929 22.085H123.385C123.385 20.045 121.972 18.695 119.777 18.695Z" fill="#020617"/>
<path d="M101.418 30.965H97.7797V8.64502H101.418V22.355L107.191 16.145H111.791L106.138 22.025L111.671 30.965H107.461L103.583 24.725L101.418 26.975V30.965Z" fill="#020617"/>
<path d="M80.3168 23.525C80.3168 18.935 83.3535 15.695 87.7433 15.695C91.8023 15.695 94.5684 17.945 94.9593 21.515H91.2912C90.8702 19.835 89.6375 18.965 87.8936 18.965C85.5484 18.965 83.9849 20.735 83.9849 23.525C83.9849 26.315 85.4281 28.055 87.7733 28.055C89.6074 28.055 90.9003 27.155 91.2912 25.535H94.9894C94.5384 28.985 91.652 31.355 87.7733 31.355C83.2633 31.355 80.3168 28.235 80.3168 23.525Z" fill="#020617"/>
<path d="M62.4059 23.525C62.4059 18.905 65.7433 15.725 70.3435 15.725C74.9437 15.725 78.2812 18.905 78.2812 23.525C78.2812 28.145 74.9437 31.325 70.3435 31.325C65.7433 31.325 62.4059 28.145 62.4059 23.525ZM66.074 23.525C66.074 26.225 67.8179 28.055 70.3435 28.055C72.8691 28.055 74.613 26.225 74.613 23.525C74.613 20.825 72.8691 18.995 70.3435 18.995C67.8179 18.995 66.074 20.825 66.074 23.525Z" fill="#020617"/>
<path d="M54.0395 23.405H49.1988V30.965H45.3502V9.03503H54.0395C58.4594 9.03503 61.3157 11.915 61.3157 16.205C61.3157 20.435 58.4293 23.405 54.0395 23.405ZM53.2879 12.455H49.1988V19.985H53.2277C55.8736 19.985 57.2867 18.575 57.2867 16.175C57.2867 13.775 55.8435 12.455 53.2879 12.455Z" fill="#020617"/>
</g>
<defs>
<clipPath id="clip0_29_94302">
<rect width="137.5" height="40" fill="white" transform="translate(0.25)"/>
</clipPath>
</defs>
</svg>
