<svg width="265" height="180" viewBox="0 0 265 180" fill="none" xmlns="http://www.w3.org/2000/svg">
<path d="M131.937 162.529C176.84 162.529 213.428 126.093 213.428 81.3403C213.277 36.4368 176.84 0 131.937 0C86.8821 0 50.4453 36.4368 50.4453 81.1891C50.4453 126.093 86.8821 162.529 131.937 162.529Z" fill="#EAEEF9"/>
<g filter="url(#filter0_d_542_307708)">
<path d="M218.871 91.6212C218.871 109.008 204.811 123.069 187.273 123.069C186.97 123.069 184.4 123.069 165.501 123.069C152.348 123.069 131.332 123.069 97.768 123.069H81.7419C60.7264 123.522 43.9443 106.74 43.9443 86.4807C43.9443 66.07 60.8776 49.1367 82.1954 50.1951C100.489 -6.95477 184.249 1.0583 191.355 60.1736C207.078 62.1391 218.871 75.4438 218.871 91.6212Z" fill="url(#paint0_linear_542_307708)"/>
</g>
<path d="M187.273 123.069C204.659 123.069 218.871 109.008 218.871 91.6214C218.871 74.2345 204.659 60.1738 187.273 60.1738C169.886 60.1738 155.674 74.2345 155.674 91.6214C155.674 109.008 169.886 123.069 187.273 123.069Z" fill="url(#paint1_linear_542_307708)"/>
<path d="M135.717 123.371C166.711 123.371 191.96 98.2735 191.96 67.2795C191.96 36.2855 166.711 11.188 135.717 11.188C104.723 11.188 79.4741 36.2855 79.4741 67.2795C79.4741 98.2735 104.572 123.371 135.717 123.371Z" fill="url(#paint2_linear_542_307708)"/>
<path d="M114.915 81.6712C117.296 81.6712 119.31 79.6567 119.31 77.276C119.31 74.8953 117.296 72.8809 114.915 72.8809C112.534 72.8809 110.52 74.8953 110.52 77.276C110.52 79.6567 112.534 81.6712 114.915 81.6712Z" fill="#989FB0"/>
<path d="M148.611 81.6712C150.992 81.6712 153.007 79.6567 153.007 77.276C153.007 74.8953 150.992 72.8809 148.611 72.8809C146.231 72.8809 144.216 74.8953 144.216 77.276C144.216 79.8399 146.231 81.6712 148.611 81.6712Z" fill="#989FB0"/>
<path d="M114.743 62.7348L105.075 67.9551L106.38 70.3721L116.049 65.1518L114.743 62.7348Z" fill="#989FB0"/>
<path d="M148.014 62.6657L146.709 65.083L156.378 70.3022L157.683 67.8849L148.014 62.6657Z" fill="#989FB0"/>
<path d="M131.763 91.9264C134.595 91.9264 136.891 90.2046 136.891 88.0806C136.891 85.9567 134.595 84.2349 131.763 84.2349C128.931 84.2349 126.636 85.9567 126.636 88.0806C126.636 90.2046 128.931 91.9264 131.763 91.9264Z" fill="#989FB0"/>
<path d="M26.4892 21.7041C26.4892 21.7041 5.35505 27.07 11.7593 31.3627C18.1636 35.4408 33.3205 42.5238 47.6234 37.8018C61.9263 33.0798 47.6234 26.4261 47.8369 26.4261C48.0504 26.4261 26.4892 21.7041 26.4892 21.7041Z" fill="#CED7E2"/>
<path d="M0.658203 19.987C8.34336 22.348 32.0393 18.4846 47.1961 8.61133C59.1508 23.4212 63.6338 27.2846 67.9033 27.7139C61.2855 34.3676 39.2975 45.0994 26.9158 31.1481C12.3994 40.3774 0.658203 19.987 0.658203 19.987Z" fill="#E9EDF9"/>
<path d="M197.31 73.6537C205.422 74.083 227.41 64.2098 239.364 50.9023C254.735 62.278 259.858 64.8537 264.341 64.2098C259.431 72.3659 244.488 90.1807 223.354 91.4685C207.983 82.4538 197.31 73.6537 197.31 73.6537Z" fill="#E9EDF9"/>
<path d="M132.554 174.333C130.949 166.369 115.91 147.534 100.044 139.271C107.233 121.551 108.451 115.948 106.711 111.766C115.833 114.49 136.808 124.525 143.32 144.672C138.418 161.803 132.554 174.333 132.554 174.333Z" fill="white"/>
<defs>
<filter id="filter0_d_542_307708" x="21.9443" y="0.324707" width="218.927" height="155.753" filterUnits="userSpaceOnUse" color-interpolation-filters="sRGB">
<feFlood flood-opacity="0" result="BackgroundImageFix"/>
<feColorMatrix in="SourceAlpha" type="matrix" values="0 0 0 0 0 0 0 0 0 0 0 0 0 0 0 0 0 0 127 0" result="hardAlpha"/>
<feOffset dy="11"/>
<feGaussianBlur stdDeviation="11"/>
<feColorMatrix type="matrix" values="0 0 0 0 0.397708 0 0 0 0 0.47749 0 0 0 0 0.575 0 0 0 0.27 0"/>
<feBlend mode="normal" in2="BackgroundImageFix" result="effect1_dropShadow_542_307708"/>
<feBlend mode="normal" in="SourceGraphic" in2="effect1_dropShadow_542_307708" result="shape"/>
</filter>
<linearGradient id="paint0_linear_542_307708" x1="131.408" y1="57.5054" x2="131.351" y2="124.282" gradientUnits="userSpaceOnUse">
<stop stop-color="white"/>
<stop offset="0.9964" stop-color="#ECF0F5"/>
</linearGradient>
<linearGradient id="paint1_linear_542_307708" x1="152.311" y1="53.4032" x2="180.323" y2="84.0399" gradientUnits="userSpaceOnUse">
<stop stop-color="#BCCBE1"/>
<stop offset="0.9942" stop-color="white" stop-opacity="0"/>
</linearGradient>
<linearGradient id="paint2_linear_542_307708" x1="74.2075" y1="41.5406" x2="118.357" y2="58.8176" gradientUnits="userSpaceOnUse">
<stop stop-color="#E2E8F0"/>
<stop offset="0.9942" stop-color="white" stop-opacity="0"/>
</linearGradient>
</defs>
</svg>
